<?xml version="1.0" encoding="utf-8" ?>
<svg baseProfile="full" height="100%" version="1.1" viewBox="0,0,1000,300" width="100%" xmlns="http://www.w3.org/2000/svg" xmlns:ev="http://www.w3.org/2001/xml-events" xmlns:xlink="http://www.w3.org/1999/xlink"><defs /><rect fill="white" height="300" width="1000" x="0" y="0" /><path d="M0,0 M368.1859130859375,48.385929107666016 L368.1285705566406,48.970611572265625 L368.0282287597656,50.13497543334961 L367.88458251953125,51.92142105102539 L367.7093505859375,54.18876647949219 L367.5103454589844,56.8176155090332 L367.30230712890625,59.65674591064453 L367.1040954589844,62.531288146972656 L366.9533386230469,65.22002410888672 L366.87359619140625,67.47423553466797 L366.8697509765625,69.10807037353516 L366.9093322753906,70.05604553222656 L366.954833984375,70.45392608642578 M366.6526184082031,45.0 L366.68017578125,45.11967468261719 L366.8077392578125,45.49847412109375 L367.085205078125,46.23296356201172 L367.5499572753906,47.314002990722656 L368.1925354003906,48.61903381347656 L369.01458740234375,50.00095748901367 L370.0187683105469,51.31975173950195 L371.19659423828125,52.454097747802734 L372.51348876953125,53.288124084472656 L373.9302062988281,53.71918487548828 L375.3887634277344,53.692169189453125 L376.83892822265625,53.209922790527344 L378.23944091796875,52.34088134765625 L379.5460205078125,51.18292999267578 L380.7303161621094,49.85334777832031 L381.75921630859375,48.4859504699707 L382.60247802734375,47.23145294189453 L383.240966796875,46.209327697753906 L383.66363525390625,45.51442337036133 L383.86541748046875,45.19878387451172 L383.88189697265625,45.2941780090332 L383.73468017578125,45.829200744628906 L383.46856689453125,46.84407043457031 L383.14801025390625,48.345420837402344 L382.8118896484375,50.308349609375 L382.4744873046875,52.665897369384766 L382.15130615234375,55.303829193115234 L381.8410949707031,58.07572555541992 L381.5771484375,60.83112716674805 L381.4132995605469,63.42359161376953 L381.3634033203125,65.72599792480469 L381.44964599609375,67.62645721435547 L381.6661071777344,69.03495788574219 L381.9881286621094,69.91899108886719 L382.30291748046875,70.3504638671875 L382.5360107421875,70.48200988769531 M391.74615478515625,57.568443298339844 L391.64935302734375,57.309967041015625 L391.36187744140625,57.02650833129883 L390.8020935058594,56.90441131591797 L389.9578857421875,57.18757629394531 L388.90478515625,57.95704650878906 L387.7650146484375,59.215885162353516 L386.70025634765625,60.857913970947266 L385.8541259765625,62.72285842895508 L385.34039306640625,64.60441589355469 L385.20947265625,66.30853271484375 L385.4425048828125,67.66494750976562 L385.9659729003906,68.57101440429688 L386.68829345703125,68.95533752441406 L387.52593994140625,68.78207397460938 L388.4216613769531,68.04997253417969 L389.3150329589844,66.81492614746094 L390.14508056640625,65.19171142578125 L390.86383056640625,63.34059524536133 L391.4478759765625,61.45783996582031 L391.8968505859375,59.75312805175781 L392.2203369140625,58.37311553955078 L392.4248962402344,57.4328498840332 L392.51788330078125,57.00813674926758 L392.517333984375,57.12777328491211 L392.4623107910156,57.835838317871094 L392.3948974609375,59.14671325683594 L392.3476257324219,60.93839645385742 L392.3651428222656,63.01680374145508 L392.49310302734375,65.12761688232422 L392.76904296875,67.01689147949219 L393.2106628417969,68.52994537353516 L393.84222412109375,69.4871826171875 L394.63043212890625,69.77162170410156 L395.5189514160156,69.38587951660156 L396.2784423828125,68.71273040771484 L396.7762145996094,68.0983657836914 M400.2095947265625,48.32926940917969 L400.15740966796875,47.91748046875 L400.10845947265625,47.48400115966797 L400.09112548828125,47.29283142089844 L400.13714599609375,47.65608215332031 L400.2327575683594,48.640411376953125 L400.34228515625,50.22325897216797 L400.4248962402344,52.288307189941406 L400.46044921875,54.73894119262695 L400.4289245605469,57.41474151611328 L400.34033203125,60.139888763427734 L400.219482421875,62.7197265625 L400.1058349609375,64.96951293945312 L400.0379333496094,66.71170806884766 L400.05157470703125,67.8298110961914 L400.1710510253906,68.27835083007812 L400.42669677734375,68.08924865722656 L400.8441467285156,67.32193756103516 L401.4473571777344,66.08892822265625 L402.24560546875,64.51598358154297 L403.2318115234375,62.750144958496094 L404.3739013671875,60.948272705078125 L405.62139892578125,59.26481246948242 L406.87921142578125,57.81721878051758 L408.0254821777344,56.693790435791016 L408.947021484375,55.91692352294922 L409.5670166015625,55.46596908569336 L409.84674072265625,55.28746032714844 L409.77264404296875,55.335731506347656 L409.30535888671875,55.598628997802734 L408.3868713378906,56.07941818237305 L407.0294494628906,56.758235931396484 L405.3379821777344,57.59947204589844 L403.50604248046875,58.5230712890625 L401.76885986328125,59.45458984375 L400.30670166015625,60.342445373535156 L399.22772216796875,61.15903091430664 L398.6058654785156,61.90811538696289 L398.47381591796875,62.62541961669922 L398.82733154296875,63.32353591918945 L399.62762451171875,64.00509643554688 L400.78314208984375,64.63774871826172 L402.1884765625,65.18042755126953 L403.73040771484375,65.60082244873047 L405.3157958984375,65.88912963867188 L406.873046875,66.03507995605469 L408.35076904296875,66.02638244628906 L409.7135009765625,65.84346008300781 L410.94366455078125,65.4833755493164 L412.01080322265625,64.94779968261719 L412.8977355957031,64.24385070800781 L413.6110534667969,63.39102554321289 L414.1571044921875,62.406734466552734 L414.55059814453125,61.33490753173828 L414.8162841796875,60.24879455566406 L414.970703125,59.23835372924805 L415.03271484375,58.37709045410156 L415.0484924316406,57.732242584228516 L415.0390319824219,57.33100891113281 L415.026611328125,57.20061492919922 L415.01361083984375,57.36412811279297 L414.99896240234375,57.85531234741211 L414.96197509765625,58.67497253417969 L414.9066162109375,59.79804229736328 L414.83026123046875,61.1396484375 L414.7520751953125,62.581947326660156 L414.6814880371094,63.985870361328125 L414.6565246582031,65.24984741210938 L414.688232421875,66.21429443359375 L414.7832946777344,66.76799774169922 L414.9287109375,66.86195373535156 L415.0697937011719,66.67881774902344 L415.16302490234375,66.42049407958984 M414.37786865234375,50.87185287475586 L414.3868713378906,50.83140182495117 L414.4095458984375,50.81431579589844 L414.4369201660156,50.82219696044922 L414.4599304199219,50.85664367675781 M420.12774658203125,57.09223937988281 L420.1281433105469,56.910728454589844 L420.11175537109375,56.73651123046875 L420.0624694824219,56.73410415649414 L419.9757385253906,57.09737014770508 L419.85443115234375,57.88648986816406 L419.7065734863281,59.078163146972656 L419.53277587890625,60.556884765625 L419.3559265136719,62.1602783203125 L419.20111083984375,63.70199966430664 L419.1075134277344,65.01225280761719 L419.09228515625,65.94742584228516 L419.17547607421875,66.4217758178711 L419.362060546875,66.3930892944336 L419.65704345703125,65.8415756225586 L420.05963134765625,64.80592346191406 L420.57635498046875,63.3984375 L421.2100830078125,61.77336502075195 L421.9826965332031,60.11129379272461 L422.9006042480469,58.57184982299805 L423.9454040527344,57.26856994628906 L425.0504455566406,56.29228973388672 L426.14483642578125,55.728546142578125 L427.1518859863281,55.62445831298828 L428.008056640625,55.98659896850586 L428.669921875,56.78321075439453 L429.1222229003906,57.94224548339844 L429.35302734375,59.35955810546875 L429.405517578125,60.93791580200195 L429.34197998046875,62.51662826538086 L429.23211669921875,63.92884063720703 L429.138427734375,64.94490051269531 L429.0899658203125,65.50643920898438 M438.6105041503906,58.108306884765625 L438.5030212402344,57.791709899902344 L438.21588134765625,57.399444580078125 L437.6819763183594,57.10107421875 L436.8930358886719,57.12853240966797 L435.91455078125,57.55134201049805 L434.8692626953125,58.34852600097656 L433.9151306152344,59.42033767700195 L433.2125244140625,60.65125274658203 L432.88134765625,61.884281158447266 L432.9826354980469,62.97809600830078 L433.52618408203125,63.809837341308594 L434.4531555175781,64.28157043457031 L435.6554870605469,64.33700561523438 L436.9899597167969,63.97517013549805 L438.29180908203125,63.2473030090332 L439.4182434082031,62.25349426269531 L440.2745361328125,61.12407302856445 L440.819580078125,59.99995040893555 L441.07464599609375,59.00228500366211 L441.0943908691406,58.22945022583008 L440.9677429199219,57.7435188293457 L440.7962646484375,57.58969497680664 L440.6585693359375,57.79875946044922 L440.6195373535156,58.40534210205078 L440.7181396484375,59.41769790649414 L440.9633483886719,60.81943893432617 L441.3446044921875,62.545040130615234 L441.8294372558594,64.52088165283203 L442.3503723144531,66.6501693725586 L442.8407897949219,68.84854125976562 L443.2221374511719,71.0172119140625 L443.450439453125,73.06908416748047 L443.4869384765625,74.90275573730469 L443.308837890625,76.43670654296875 L442.9003601074219,77.595947265625 L442.2630615234375,78.33610534667969 L441.40087890625,78.6283950805664 L440.3669128417969,78.47970581054688 L439.2247314453125,77.91943359375 L438.059814453125,77.01445007324219 L436.982177734375,75.86419677734375 L436.11492919921875,74.58109283447266 L435.55499267578125,73.2715835571289 L435.4378356933594,71.99472045898438 L435.7981262207031,70.80341339111328 L436.5685729980469,69.74562072753906 L437.3924560546875,68.97025299072266 L438.00665283203125,68.52140045166016 M455.1502990722656,57.259559631347656 L455.1064758300781,56.97357177734375 L455.06805419921875,56.61611557006836 L455.0643005371094,56.34413528442383 L455.1178894042969,56.37361526489258 L455.2213134765625,56.802860260009766 L455.354248046875,57.66871643066406 L455.49468994140625,58.9187126159668 L455.6373291015625,60.476993560791016 L455.7814025878906,62.175537109375 L455.91461181640625,63.79553985595703 L456.0465087890625,65.16130828857422 L456.1639404296875,66.14435577392578 L456.2513732910156,66.655517578125 L456.3121337890625,66.66081237792969 L456.3638610839844,66.13138580322266 L456.43719482421875,65.04818725585938 L456.61328125,63.508480072021484 L456.9433898925781,61.68108367919922 L457.4703063964844,59.77131652832031 L458.1981201171875,57.9995002746582 L459.07501220703125,56.5233268737793 L460.0289306640625,55.43971252441406 L461.0021057128906,54.826045989990234 L461.92315673828125,54.71846008300781 L462.7477722167969,55.13165283203125 L463.4232177734375,56.055137634277344 L463.89190673828125,57.41094970703125 L464.13739013671875,59.0586051940918 L464.1912536621094,60.7756233215332 L464.1248779296875,62.32356262207031 L464.02484130859375,63.504493713378906 L463.9549255371094,64.19023895263672 L463.9473876953125,64.33418273925781 L464.027587890625,63.93429946899414 L464.22918701171875,63.002323150634766 L464.6139831542969,61.62744903564453 L465.2181396484375,59.967105865478516 L466.05908203125,58.22697067260742 L467.0906677246094,56.634971618652344 L468.2255554199219,55.3714599609375 L469.36114501953125,54.56220626831055 L470.4097595214844,54.285911560058594 L471.2860107421875,54.575645446777344 L471.95843505859375,55.40906524658203 L472.393798828125,56.715423583984375 L472.5927734375,58.372501373291016 L472.6012268066406,60.23508071899414 L472.51654052734375,62.09492492675781 L472.43890380859375,63.7332878112793 L472.4639892578125,64.96356964111328 L472.5583801269531,65.6957778930664 L472.66259765625,66.00556182861328 M475.84844970703125,55.568023681640625 L475.8858642578125,55.64198303222656 L475.9863586425781,55.88123321533203 L476.16607666015625,56.37592315673828 L476.4334716796875,57.163787841796875 L476.7747802734375,58.20030212402344 L477.19482421875,59.39458465576172 L477.6852111816406,60.61916732788086 L478.2916564941406,61.7176399230957 L479.0158386230469,62.55128479003906 L479.8382263183594,63.03480529785156 L480.54608154296875,63.2156867980957 L481.01849365234375,63.21695327758789 M485.8179626464844,55.718360900878906 L485.7668762207031,55.65840148925781 L485.61492919921875,55.76792907714844 L485.3121337890625,56.22877502441406 L484.82379150390625,57.18872833251953 L484.1495361328125,58.632415771484375 L483.303955078125,60.48784637451172 L482.33526611328125,62.66072463989258 L481.30096435546875,65.07096099853516 L480.2802734375,67.63048553466797 L479.33514404296875,70.23084259033203 L478.53802490234375,72.74100494384766 L477.9267578125,74.98294830322266 L477.52392578125,76.77859497070312 L477.31781005859375,78.01850128173828 L477.2539978027344,78.69925689697266 L477.2567138671875,78.95660400390625 M495.80462646484375,55.4886360168457 L495.8731994628906,55.59076690673828 L495.95770263671875,55.91902160644531 L496.00482177734375,56.59904098510742 L495.9515380859375,57.69142150878906 L495.7874755859375,59.15986633300781 L495.57177734375,60.882686614990234 L495.3947448730469,62.67279052734375 L495.3492431640625,64.32292175292969 L495.4869079589844,65.65177917480469 L495.80657958984375,66.5140609741211 L496.2772216796875,66.82382202148438 L496.88079833984375,66.55018615722656 L497.5958251953125,65.71817779541016 L498.38458251953125,64.43680572509766 L499.1866455078125,62.88290786743164 L499.91009521484375,61.26679992675781 L500.4649658203125,59.792850494384766 L500.8229675292969,58.597900390625 L501.0000305175781,57.76959991455078 L501.02392578125,57.34180450439453 L500.95709228515625,57.337371826171875 L500.8429260253906,57.77646255493164 L500.7070007324219,58.66268539428711 L500.6085205078125,59.923789978027344 L500.608642578125,61.445960998535156 L500.75762939453125,63.03602981567383 L501.10321044921875,64.51619720458984 L501.6461181640625,65.7364730834961 L502.34637451171875,66.60195922851562 L503.1563720703125,67.04306030273438 L504.0324401855469,67.03177642822266 L504.9422607421875,66.54991912841797 L505.8203125,65.61936950683594 L506.5924072265625,64.3026351928711 L507.1802062988281,62.70795440673828 L507.5248718261719,60.970542907714844 L507.64178466796875,59.25453567504883 L507.5970153808594,57.71356964111328 L507.4589538574219,56.44835662841797 L507.3258361816406,55.568504333496094 L507.26312255859375,55.11994934082031 L507.302978515625,55.08138656616211 L507.40185546875,55.26573944091797 L507.5025634765625,55.49254608154297 M517.8846435546875,58.96025085449219 L517.763916015625,58.4125862121582 L517.448486328125,57.61940383911133 L516.8612060546875,56.785152435302734 L515.9871826171875,56.24064636230469 L514.8661499023438,56.125057220458984 L513.6040649414062,56.507320404052734 L512.34326171875,57.37617492675781 L511.2275390625,58.676944732666016 L510.39068603515625,60.266326904296875 L509.9307861328125,61.9593505859375 L509.89031982421875,63.54691696166992 L510.281494140625,64.84367370605469 L511.067626953125,65.71723937988281 L512.1678466796875,66.07836151123047 L513.46923828125,65.8880615234375 L514.8389892578125,65.17045593261719 L516.1405029296875,63.99699020385742 L517.2789306640625,62.50788879394531 L518.18994140625,60.868289947509766 L518.84912109375,59.26961135864258 L519.2658081054688,57.881683349609375 L519.4785766601562,56.82758712768555 L519.5364379882812,56.17678451538086 L519.4916381835938,55.97101593017578 L519.3880615234375,56.21412658691406 L519.2503051757812,56.914466857910156 L519.10546875,58.03546142578125 L518.9932861328125,59.469337463378906 L518.9555053710938,61.051937103271484 L519.036865234375,62.59593963623047 L519.2845458984375,63.92180252075195 L519.7139892578125,64.89427947998047 L520.3301391601562,65.4118881225586 L521.1199340820312,65.40930938720703 L522.0328979492188,64.87152862548828 L523.013427734375,63.84904098510742 L524.0015869140625,62.45442581176758 L524.93212890625,60.84394073486328 L525.745849609375,59.19395065307617 L526.3949584960938,57.69172286987305 L526.837890625,56.47359848022461 L527.06298828125,55.64488220214844 L527.0857543945312,55.27696990966797 L526.9378662109375,55.39179229736328 L526.6632080078125,55.992210388183594 L526.3416137695312,57.05159378051758 L526.0691528320312,58.43104934692383 L525.9414672851562,59.9415168762207 L526.0371704101562,61.38106155395508 L526.375732421875,62.55742645263672 L526.9421997070312,63.348819732666016 L527.7088623046875,63.695960998535156 L528.6386108398438,63.55615234375 L529.684814453125,62.93958282470703 L530.7841186523438,61.91896438598633 L531.8463134765625,60.615386962890625 L532.777587890625,59.19587326049805 L533.4930419921875,57.84955596923828 L533.96875,56.71319580078125 L534.2245483398438,55.892398834228516 L534.29345703125,55.4593620300293 L534.2249755859375,55.45478439331055 L534.0518188476562,55.91905975341797 L533.7991333007812,56.88810729980469 L533.544189453125,58.335655212402344 L533.3605346679688,60.222686767578125 L533.289794921875,62.490234375 L533.359375,65.05557250976562 L533.538818359375,67.82196044921875 L533.7661743164062,70.66255950927734 L533.9779052734375,73.4111328125 L534.103271484375,75.90596771240234 L534.0670166015625,78.00076293945312 L533.820556640625,79.58563232421875 L533.3214721679688,80.60090637207031 L532.5582885742188,81.03189849853516 L531.5332641601562,80.91020202636719 L530.295654296875,80.2962417602539 L528.923095703125,79.27725219726562 L527.5350952148438,77.93258666992188 L526.2738647460938,76.40335845947266 L525.2731323242188,74.8602294921875 L524.6289672851562,73.64777374267578 L524.319091796875,72.91567993164062 M553.10107421875,59.20351791381836 L552.9837036132812,58.89603042602539 L552.741943359375,58.40541458129883 L552.3365478515625,57.81502151489258 L551.7431640625,57.29728698730469 L550.9126586914062,56.963783264160156 L549.8262939453125,56.938968658447266 L548.5172119140625,57.31611251831055 L547.091796875,58.15756607055664 L545.7055053710938,59.438377380371094 L544.5433349609375,61.04392623901367 L543.7691040039062,62.784423828125 L543.4893188476562,64.44615173339844 L543.7555541992188,65.81597900390625 L544.5357666015625,66.73444366455078 L545.7298583984375,67.09380340576172 L547.2180786132812,66.84459686279297 L548.8822021484375,65.9766845703125 L550.608642578125,64.53324127197266 L552.3047485351562,62.569183349609375 L553.8663940429688,60.21034240722656 L555.1968994140625,57.61841583251953 L556.2275390625,54.97312927246094 L556.940185546875,52.453643798828125 L557.3609008789062,50.248931884765625 L557.55859375,48.463443756103516 L557.6118774414062,47.18836212158203 L557.5965576171875,46.47389602661133 L557.5440673828125,46.32768630981445 L557.4544677734375,46.7660026550293 L557.2946166992188,47.82286071777344 L557.0510864257812,49.45530319213867 L556.7321166992188,51.58728790283203 L556.3828735351562,54.09001159667969 L556.0487670898438,56.763675689697266 L555.771728515625,59.40717315673828 L555.6422119140625,61.81660842895508 L555.7440795898438,63.793338775634766 L556.1200561523438,65.22233581542969 L556.5870361328125,66.06798553466797 L556.9752807617188,66.43914794921875 M566.328857421875,58.28276443481445 L566.2802124023438,57.75871276855469 L566.0731811523438,57.03178024291992 L565.6068115234375,56.307586669921875 L564.81982421875,55.89149475097656 L563.7527465820312,55.88745880126953 L562.5062255859375,56.33680725097656 L561.2315673828125,57.1928825378418 L560.1117553710938,58.41102600097656 L559.31396484375,59.86895751953125 L558.946533203125,61.40788269042969 L559.0726318359375,62.87961959838867 L559.6661376953125,64.12995147705078 L560.6524658203125,65.02599334716797 L561.923583984375,65.4825210571289 L563.358154296875,65.43598937988281 L564.812744140625,64.86604309082031 L566.1671142578125,63.825653076171875 L567.2826538085938,62.408172607421875 L568.0408935546875,60.754425048828125 L568.37353515625,59.05122375488281 L568.2685546875,57.46367263793945 L567.7817993164062,56.11858367919922 L567.0338745117188,55.147552490234375 L566.169921875,54.61442565917969 L565.326416015625,54.50823211669922 L564.6935424804688,54.65171813964844 L564.32861328125,54.85595703125 M572.99462890625,55.279632568359375 L573.009765625,54.953922271728516 L573.002685546875,54.6069450378418 L572.9266357421875,54.45570373535156 L572.7489013671875,54.75614929199219 L572.4786376953125,55.57319259643555 L572.1624755859375,56.843780517578125 L571.8820190429688,58.41961669921875 L571.7254638671875,60.14468002319336 L571.7528076171875,61.817081451416016 L571.9971313476562,63.2579460144043 L572.4520263671875,64.33634948730469 L573.0894775390625,64.94303894042969 L573.872314453125,65.0134048461914 L574.7649536132812,64.53187561035156 L575.7142333984375,63.54066848754883 L576.64453125,62.173160552978516 L577.4609375,60.63313674926758 L578.0859375,59.148101806640625 L578.4931030273438,57.895545959472656 L578.7066650390625,57.00449752807617 L578.7807006835938,56.54479217529297 L578.7774658203125,56.55647659301758 L578.745361328125,57.06141662597656 L578.7301635742188,58.05532455444336 L578.7877197265625,59.4271125793457 L578.9759521484375,61.01179885864258 L579.3507080078125,62.608375549316406 L579.9415283203125,64.01879119873047 L580.7467651367188,65.09635925292969 L581.7281494140625,65.75967407226562 L582.8080444335938,65.93106842041016 L583.9066162109375,65.57775115966797 L584.92919921875,64.72322845458984 L585.783935546875,63.443389892578125 L586.412841796875,61.87751770019531 L586.7777099609375,60.18423080444336 L586.883544921875,58.53444290161133 L586.798828125,57.08183670043945 L586.6445922851562,56.04667282104492 L586.5132446289062,55.47340774536133 M590.4585571289062,56.263614654541016 L590.4907836914062,56.1817741394043 L590.5328369140625,56.17013168334961 L590.5675659179688,56.36079788208008 L590.5712890625,56.89370346069336 L590.531005859375,57.789180755615234 L590.478759765625,59.004966735839844 L590.4498901367188,60.42601776123047 L590.4757690429688,61.908992767333984 L590.573974609375,63.29525375366211 L590.748291015625,64.4544677734375 L590.9835815429688,65.25672149658203 L591.298583984375,65.613525390625 L591.7271118164062,65.46723175048828 L592.2964477539062,64.79846954345703 L593.0185546875,63.66666030883789 L593.8875732421875,62.22214126586914 L594.8460083007812,60.652565002441406 L595.8298950195312,59.15901184082031 L596.7650756835938,57.89674377441406 L597.6001586914062,56.96202087402344 L598.3037109375,56.43204879760742 L598.86572265625,56.36431121826172 L599.2681884765625,56.78759002685547 L599.5096435546875,57.693843841552734 L599.596923828125,59.00265121459961 L599.6002197265625,60.58867263793945 L599.5987548828125,62.296199798583984 L599.7109375,63.929954528808594 L600.002197265625,65.29540252685547 L600.4813842773438,66.25712585449219 L600.9649658203125,66.78380584716797 L601.323486328125,66.97892761230469 M607.3226318359375,46.71405792236328 L607.3949584960938,46.69206237792969 L607.4747314453125,46.841941833496094 L607.52392578125,47.32736587524414 L607.5025634765625,48.272247314453125 L607.4258422851562,49.66157150268555 L607.3319091796875,51.42015838623047 L607.2518310546875,53.442626953125 L607.197509765625,55.63447189331055 L607.1815185546875,57.888057708740234 L607.207275390625,60.076683044433594 L607.2738647460938,62.061866760253906 L607.365966796875,63.6690559387207 L607.4462280273438,64.77167510986328 L607.4781494140625,65.33039093017578 L607.4697875976562,65.48465728759766 L607.4426879882812,65.43109130859375 M602.7506713867188,57.18267822265625 L602.8963623046875,57.08953857421875 L603.318115234375,56.93910217285156 L604.1338500976562,56.75419998168945 L605.3719482421875,56.580074310302734 L606.9619140625,56.42559814453125 L608.7867431640625,56.30772018432617 L610.6824340820312,56.223514556884766 L612.4799194335938,56.15854263305664 L614.0216064453125,56.107505798339844 L615.1698608398438,56.053951263427734 L615.8592529296875,56.00237274169922 L616.167236328125,55.96639633178711 M619.535400390625,58.83475875854492 L619.531982421875,58.63777542114258 L619.3988037109375,58.3104362487793 L619.0314331054688,57.91534423828125 L618.353759765625,57.5877685546875 L617.3948974609375,57.464195251464844 L616.26220703125,57.66973876953125 L615.0985717773438,58.2613410949707 L614.044677734375,59.226478576660156 L613.2428588867188,60.46347427368164 L612.80078125,61.807701110839844 L612.81787109375,63.104923248291016 L613.3384399414062,64.19635772705078 L614.344482421875,64.95684051513672 L615.74609375,65.30996704101562 L617.38623046875,65.21012878417969 L619.059326171875,64.66172790527344 L620.5612182617188,63.71952819824219 L621.7003173828125,62.46746826171875 L622.356689453125,61.03511428833008 L622.4774169921875,59.563140869140625 L622.1278076171875,58.199310302734375 L621.4637451171875,57.06665802001953 L620.8048095703125,56.29926300048828 L620.349609375,55.89641571044922 M626.8796997070312,55.5485725402832 L626.857177734375,55.41074752807617 L626.8087768554688,55.338680267333984 L626.7213745117188,55.496734619140625 L626.5889892578125,56.055667877197266 L626.417724609375,57.04517364501953 L626.2354736328125,58.39223098754883 L626.0816650390625,59.94424057006836 L626.0155029296875,61.5387077331543 L626.0810546875,62.99375915527344 L626.3181762695312,64.15120697021484 L626.7589111328125,64.88951110839844 L627.4346923828125,65.10704040527344 L628.335693359375,64.75308990478516 L629.42529296875,63.857933044433594 L630.60009765625,62.533756256103516 L631.73828125,60.95777130126953 L632.7197265625,59.35176467895508 L633.4794921875,57.90350341796875 L633.9969482421875,56.749977111816406 L634.2979736328125,55.992027282714844 L634.4078369140625,55.71282958984375 L634.3583374023438,55.964630126953125 L634.1746826171875,56.785675048828125 L633.9009399414062,58.13583755493164 L633.614990234375,59.86394500732422 L633.4202880859375,61.74229431152344 L633.4097900390625,63.531883239746094 L633.6490478515625,65.02674865722656 L634.1442260742188,66.08892822265625 L634.8697509765625,66.63568115234375 L635.7864990234375,66.60928344726562 L636.8458251953125,65.98933410644531 L637.969970703125,64.8382339477539 L639.0599365234375,63.29877853393555 L639.9852294921875,61.549198150634766 L640.6588134765625,59.759788513183594 L641.0595703125,58.09569549560547 L641.23193359375,56.67448043823242 L641.267822265625,55.67845916748047 L641.2547607421875,55.13679504394531 M645.8572998046875,56.6523323059082 L645.9171142578125,56.62098693847656 L646.01220703125,56.67451477050781 L646.099365234375,56.91977310180664 L646.1176147460938,57.45698928833008 L646.00390625,58.30461502075195 L645.7454833984375,59.42311096191406 L645.387939453125,60.745540618896484 L644.9967041015625,62.15385818481445 L644.6422119140625,63.50730895996094 L644.3775634765625,64.67214965820312 L644.2022705078125,65.53306579589844 L644.1070556640625,65.99776458740234 L644.1041259765625,66.02982330322266 L644.2117309570312,65.59300994873047 L644.4766845703125,64.68622589111328 L644.9332275390625,63.379459381103516 L645.5824584960938,61.801692962646484 L646.3985595703125,60.10512161254883 L647.36376953125,58.47426223754883 L648.4467163085938,57.05264663696289 L649.6273193359375,55.94997024536133 L650.8651733398438,55.25629425048828 L652.081787109375,55.02049255371094 L653.1802978515625,55.2584342956543 L654.0840454101562,55.96660232543945 L654.749267578125,57.0854377746582 L655.1825561523438,58.51011276245117 L655.4444580078125,60.128780364990234 L655.603271484375,61.81412887573242 L655.7225341796875,63.46863555908203 L655.833251953125,65.00857543945312 L655.9802856445312,66.33625030517578 L656.176513671875,67.35673522949219 L656.4473876953125,68.02745056152344 L656.7125244140625,68.36959838867188 L656.9129638671875,68.48502349853516 " fill="none" stroke="black" stroke-linecap="round" stroke-width="2" /><path d="M0,0 M442.66680908203125,105.70133209228516 L442.6339111328125,105.72747802734375 L442.6086120605469,105.98731231689453 L442.6001281738281,106.6855239868164 L442.60565185546875,107.97926330566406 L442.61163330078125,109.8995132446289 L442.6193542480469,112.36776733398438 L442.67864990234375,115.24398040771484 L442.8724365234375,118.34493255615234 L443.2727966308594,121.44286346435547 L443.90484619140625,124.26531219482422 L444.7581787109375,126.5616455078125 L445.7608642578125,128.11146545410156 L446.8283386230469,128.80401611328125 L447.89666748046875,128.62562561035156 L448.9215087890625,127.65033721923828 L449.86285400390625,126.0044937133789 L450.68975830078125,123.89183807373047 L451.3520202636719,121.56282806396484 L451.8097839355469,119.3199691772461 L452.0772705078125,117.43778991699219 L452.19305419921875,116.13189697265625 L452.2273254394531,115.51663970947266 L452.2436218261719,115.62339782714844 L452.2884521484375,116.4559555053711 L452.3907165527344,117.98709106445312 L452.5833740234375,120.09528350830078 L452.9044189453125,122.568603515625 L453.4102783203125,125.1054458618164 L454.1180114746094,127.38211822509766 L455.0027160644531,129.16192626953125 L455.9916687011719,130.30262756347656 L457.00030517578125,130.73394775390625 L457.9769287109375,130.43092346191406 L458.9097900390625,129.385498046875 L459.7879638671875,127.64481353759766 L460.5870056152344,125.33436584472656 L461.25860595703125,122.62530517578125 L461.75225830078125,119.72808074951172 L462.0315246582031,116.8467788696289 L462.08892822265625,114.15850067138672 L461.9521179199219,111.82173156738281 L461.6955261230469,109.97273254394531 L461.4057922363281,108.6478042602539 L461.18817138671875,107.89756774902344 L461.1153564453125,107.70314025878906 L461.1950988769531,107.97747802734375 L461.3397216796875,108.42831420898438 L461.472900390625,108.8319091796875 M472.1181640625,119.25294494628906 L471.8258972167969,118.6968994140625 L471.251708984375,117.9367446899414 L470.36285400390625,117.22187042236328 L469.21954345703125,116.9142837524414 L467.87799072265625,117.1502685546875 L466.46942138671875,117.9987564086914 L465.1451416015625,119.40286254882812 L464.0710754394531,121.24832916259766 L463.3793029785156,123.31871795654297 L463.1466064453125,125.34754180908203 L463.36773681640625,127.08062744140625 L463.9794006347656,128.3358154296875 L464.872314453125,128.98745727539062 L465.9349365234375,128.9577178955078 L467.0711669921875,128.22637939453125 L468.2169494628906,126.84765625 L469.32073974609375,124.95452880859375 L470.314208984375,122.7559814453125 L471.1439514160156,120.53026580810547 L471.77325439453125,118.52622985839844 L472.1846008300781,116.9594497680664 L472.3894348144531,115.98523712158203 L472.4352722167969,115.67833709716797 L472.3583984375,116.04389953613281 L472.2066650390625,117.09061431884766 L472.0309753417969,118.74417114257812 L471.8760986328125,120.86652374267578 L471.79681396484375,123.24848937988281 L471.86236572265625,125.6169204711914 L472.12017822265625,127.68891906738281 L472.5765075683594,129.2708740234375 L473.2386169433594,130.1483612060547 L474.05438232421875,130.24159240722656 L474.95269775390625,129.61019897460938 L475.7074890136719,128.7293243408203 L476.1963195800781,127.99032592773438 M479.5687255859375,106.98115539550781 L479.5502014160156,107.09820556640625 L479.5322265625,107.53885650634766 L479.524169921875,108.48733520507812 L479.5220031738281,110.01849365234375 L479.507568359375,112.06721496582031 L479.460205078125,114.51732635498047 L479.37237548828125,117.22323608398438 L479.2769470214844,120.02084350585938 L479.2241516113281,122.72454071044922 L479.26116943359375,125.11386108398438 L479.4295349121094,127.00684356689453 L479.7553405761719,128.2244873046875 L480.2294616699219,128.71006774902344 L480.8100891113281,128.52410888671875 L481.3255310058594,128.03538513183594 L481.6690979003906,127.56477355957031 M485.9367370605469,109.0218276977539 L485.76513671875,109.5899429321289 L485.50067138671875,110.70973205566406 L485.18133544921875,112.39310455322266 L484.8894348144531,114.48480224609375 L484.6526184082031,116.8524398803711 L484.47039794921875,119.31672668457031 L484.3493957519531,121.70547485351562 L484.292236328125,123.8307113647461 L484.30291748046875,125.51170349121094 L484.4041442871094,126.63462829589844 L484.6239013671875,127.14469146728516 L485.0029296875,127.02687072753906 L485.587158203125,126.30973815917969 L486.3894348144531,125.08666229248047 L487.397705078125,123.5114974975586 L488.5678405761719,121.7725830078125 L489.81060791015625,120.05067443847656 L491.04962158203125,118.48502349853516 L492.21380615234375,117.15728759765625 L493.1839599609375,116.14521026611328 L493.8507080078125,115.49292755126953 L494.15869140625,115.19964599609375 L494.191162109375,115.1498794555664 L494.0941162109375,115.21208953857422 M487.6242980957031,120.85169982910156 L487.86712646484375,121.0940933227539 L488.3392639160156,121.50404357910156 L489.0506591796875,122.06827545166016 L489.93267822265625,122.72605895996094 L490.9413146972656,123.47525787353516 L491.99029541015625,124.28462219238281 L492.99029541015625,125.08007049560547 L493.86572265625,125.75598907470703 L494.5564880371094,126.23299407958984 L495.0417175292969,126.48607635498047 L495.3293151855469,126.57140350341797 L495.4616394042969,126.57183837890625 M497.3144836425781,117.59664154052734 L497.401123046875,117.76573181152344 L497.52899169921875,118.14361572265625 L497.6673583984375,118.7799072265625 L497.766357421875,119.66627502441406 L497.81329345703125,120.78323364257812 L497.806640625,122.07429504394531 L497.7691955566406,123.45130157470703 L497.73760986328125,124.76386260986328 L497.74847412109375,125.83677673339844 L497.822509765625,126.54000854492188 L497.92144775390625,126.88158416748047 L498.0055236816406,126.96977996826172 M497.6999206542969,110.23065185546875 L497.730712890625,110.22176361083984 L497.8000793457031,110.30264282226562 L497.8812255859375,110.43583679199219 L497.9473876953125,110.58389282226562 M502.5096435546875,119.12297058105469 L502.51568603515625,118.92402648925781 L502.51873779296875,118.75008392333984 L502.51531982421875,118.78630065917969 L502.49261474609375,119.23843383789062 L502.4593811035156,120.16266632080078 L502.40252685546875,121.46166229248047 L502.329833984375,122.93830871582031 L502.2603454589844,124.37452697753906 L502.22088623046875,125.56363677978516 L502.22625732421875,126.35723876953125 L502.2961730957031,126.67770385742188 L502.44158935546875,126.47868347167969 L502.6878662109375,125.76005554199219 L503.0589599609375,124.58683013916016 L503.5812072753906,123.10233306884766 L504.2664794921875,121.49012756347656 L505.1054382324219,119.93218994140625 L506.06121826171875,118.5779037475586 L507.0638732910156,117.5301742553711 L508.0413818359375,116.86359405517578 L508.9261474609375,116.63926696777344 L509.67645263671875,116.88422393798828 L510.26239013671875,117.58771514892578 L510.6535949707031,118.70059204101562 L510.84393310546875,120.12938690185547 L510.86871337890625,121.73956298828125 L510.7778625488281,123.37384033203125 L510.67864990234375,124.84291076660156 L510.6646423339844,125.98898315429688 L510.7945861816406,126.72965240478516 L510.9938049316406,127.09607696533203 L511.17889404296875,127.20707702636719 M518.3924560546875,119.16116333007812 L518.2896728515625,118.742919921875 L518.03466796875,118.19004821777344 L517.578857421875,117.69703674316406 L516.9182739257812,117.53224182128906 L516.0994873046875,117.77742767333984 L515.2303466796875,118.43993377685547 L514.464111328125,119.42210388183594 L513.9493408203125,120.58553314208984 L513.810791015625,121.73612213134766 L514.0936889648438,122.67945098876953 L514.7748413085938,123.27372741699219 L515.7787475585938,123.4469223022461 L516.9796142578125,123.19147491455078 L518.2374267578125,122.54329681396484 L519.3994140625,121.5836181640625 L520.328857421875,120.43010711669922 L520.9474487304688,119.22614288330078 L521.2632446289062,118.1207504272461 L521.331787109375,117.23928833007812 L521.25927734375,116.6683578491211 L521.1184692382812,116.45639038085938 L520.9667358398438,116.63397216796875 L520.8489990234375,117.2205810546875 L520.8145751953125,118.21034240722656 L520.8931274414062,119.56961059570312 L521.0994873046875,121.24736785888672 L521.400634765625,123.16603088378906 L521.7338256835938,125.24437713623047 L522.0296020507812,127.39392852783203 L522.2269287109375,129.50161743164062 L522.2760620117188,131.44873046875 L522.155517578125,133.13670349121094 L521.8533935546875,134.49075317382812 L521.3577270507812,135.4911651611328 L520.6599731445312,136.1455535888672 L519.779052734375,136.4811248779297 L518.7652587890625,136.53213500976562 L517.7301635742188,136.33880615234375 L516.787109375,135.93511962890625 L516.1222534179688,135.32122802734375 L515.8529052734375,134.51153564453125 L516.0303955078125,133.56138610839844 L516.420654296875,132.72695922851562 L516.8023681640625,132.170166015625 M539.9256591796875,124.03773498535156 L540.0996704101562,123.2030029296875 L540.4149169921875,121.75935363769531 L540.8264770507812,119.81220245361328 L541.223876953125,117.65792846679688 L541.524169921875,115.41583251953125 L541.65478515625,113.20366668701172 L541.5636596679688,111.10299682617188 L541.271484375,109.2552490234375 L540.8160400390625,107.80059051513672 L540.2654418945312,106.85765838623047 L539.6954956054688,106.52788543701172 L539.1466064453125,106.89443969726562 L538.6229858398438,107.9930191040039 L538.1377563476562,109.79727172851562 L537.7129516601562,112.2033462524414 L537.388671875,115.05796813964844 L537.2059936523438,118.19140625 L537.1862182617188,121.44835662841797 L537.3216552734375,124.67076873779297 L537.56787109375,127.67453002929688 L537.8690185546875,130.24269104003906 L538.1655883789062,132.20767211914062 L538.4097290039062,133.48922729492188 L538.56591796875,134.0100860595703 L538.62255859375,133.81365966796875 L538.589599609375,133.02005004882812 L538.5186157226562,132.07838439941406 L538.4539794921875,131.34115600585938 M534.4483642578125,121.7993392944336 L534.50537109375,121.83881378173828 L534.7682495117188,121.93795013427734 L535.3739624023438,122.10780334472656 L536.4110717773438,122.31303405761719 L537.8738403320312,122.49638366699219 L539.6783447265625,122.60184478759766 L541.6759643554688,122.58750915527344 L543.7299194335938,122.42281341552734 L545.66845703125,122.1188735961914 L547.3428344726562,121.70014953613281 L548.5255126953125,121.30814361572266 L549.1793212890625,121.03620147705078 M552.35107421875,118.53783416748047 L552.1846923828125,118.25175476074219 L551.827392578125,117.84088897705078 L551.2220458984375,117.44269561767578 L550.3748168945312,117.27322387695312 L549.3234252929688,117.46531677246094 L548.1599731445312,118.07665252685547 L547.0255126953125,119.06806945800781 L546.087890625,120.33866119384766 L545.4813232421875,121.72547149658203 L545.2863159179688,123.03510284423828 L545.5135498046875,124.10502624511719 L546.1255493164062,124.80064392089844 L547.0492553710938,125.04149627685547 L548.177734375,124.79257202148438 L549.3892822265625,124.06930541992188 L550.5528564453125,122.93898010253906 L551.5488891601562,121.53770446777344 L552.3082885742188,120.06439208984375 L552.821533203125,118.72769927978516 L553.1063232421875,117.68946838378906 L553.2045288085938,117.05352783203125 L553.16455078125,116.87200164794922 L553.0214233398438,117.1558609008789 L552.8222045898438,117.90923309326172 L552.6370239257812,119.07186126708984 L552.5308837890625,120.51355743408203 L552.5728759765625,122.06224822998047 L552.8153686523438,123.53952026367188 L553.288818359375,124.77735900878906 L554.0078125,125.65624237060547 L554.9561157226562,126.08116149902344 L556.0814819335938,125.99372863769531 L557.2975463867188,125.37820434570312 L558.501220703125,124.28153228759766 L559.605224609375,122.79637908935547 L560.5480346679688,121.05013275146484 L561.2877197265625,119.18447875976562 L561.8143310546875,117.35325622558594 L562.1221923828125,115.70319366455078 L562.2371215820312,114.36274719238281 L562.20458984375,113.41666412353516 L562.0892333984375,112.89460754394531 L561.970703125,112.78758239746094 L561.93994140625,113.07003021240234 L562.0738525390625,113.70821380615234 L562.4298095703125,114.63081359863281 L563.0355224609375,115.75123596191406 L563.8741455078125,116.96492767333984 L564.906005859375,118.18705749511719 L566.0574951171875,119.34681701660156 L567.2401123046875,120.39876556396484 L568.3387451171875,121.30699920654297 L569.236328125,122.0667495727539 L569.8037109375,122.6865005493164 L569.9605712890625,123.20204162597656 L569.65234375,123.63816833496094 L568.895751953125,124.0003433227539 L567.768798828125,124.28083801269531 L566.4031372070312,124.4532470703125 L564.9569091796875,124.48778533935547 L563.6267700195312,124.37364196777344 L562.5198974609375,124.11104583740234 L561.758056640625,123.66541290283203 L561.4010009765625,123.0479965209961 L561.4461059570312,122.2969970703125 L561.69189453125,121.62477111816406 L561.9679565429688,121.1714859008789 M572.6937866210938,105.0 L572.7760620117188,105.32940673828125 L572.8928833007812,106.03224182128906 L573.0094604492188,107.17442321777344 L573.0869140625,108.72361755371094 L573.1270751953125,110.63058471679688 L573.1317749023438,112.81659698486328 L573.1141967773438,115.17752838134766 L573.0921020507812,117.57411193847656 L573.0798950195312,119.83594512939453 L573.1004638671875,121.80316925048828 L573.1710205078125,123.34970092773438 L573.28857421875,124.33518981933594 L573.4323120117188,124.69245147705078 L573.57568359375,124.45399475097656 L573.68310546875,123.95036315917969 L573.7421875,123.47769927978516 " fill="none" stroke="black" stroke-linecap="round" stroke-width="2" /><path d="M0,0 M457.063232421875,167.87173461914062 L457.1123962402344,168.01904296875 L457.19427490234375,168.41864013671875 L457.2878723144531,169.18975830078125 L457.35992431640625,170.40245056152344 L457.3838806152344,172.08038330078125 L457.35296630859375,174.20668029785156 L457.2867126464844,176.70077514648438 L457.20404052734375,179.4299774169922 L457.1487731933594,182.20700073242188 L457.1617126464844,184.811279296875 L457.2560119628906,187.05934143066406 L457.4307861328125,188.7288360595703 L457.6494445800781,189.6822509765625 L457.86236572265625,189.91441345214844 L458.023681640625,189.7178192138672 L458.11639404296875,189.39767456054688 M450.3880310058594,167.1916961669922 L450.42718505859375,167.1732177734375 L450.7430419921875,167.13311767578125 L451.5588073730469,167.04074096679688 L453.0207214355469,166.8679656982422 L455.1031799316406,166.59864807128906 L457.6706237792969,166.25021362304688 L460.5133972167969,165.86790466308594 L463.4259338378906,165.52146911621094 L466.1753845214844,165.2545623779297 L468.5360107421875,165.09024047851562 L470.18756103515625,165.01637268066406 L471.08160400390625,165.0 M451.7626953125,179.4748992919922 L452.2149353027344,179.55006408691406 L453.14898681640625,179.58090209960938 L454.5824890136719,179.4891815185547 L456.4239196777344,179.21339416503906 L458.5128173828125,178.81578063964844 L460.6520080566406,178.3856201171875 L462.3684997558594,178.05152893066406 L463.44061279296875,177.86032104492188 M471.2332763671875,178.9659881591797 L471.1539306640625,178.78025817871094 L470.95977783203125,178.49462890625 L470.5915222167969,178.1901397705078 L470.0087585449219,178.01376342773438 L469.19989013671875,178.08978271484375 L468.20526123046875,178.5221710205078 L467.1033935546875,179.3529815673828 L466.0174255371094,180.57131958007812 L465.08001708984375,182.09320068359375 L464.4046936035156,183.7666015625 L464.08477783203125,185.4108428955078 L464.1868591308594,186.83828735351562 L464.7147216796875,187.87167358398438 L465.62744140625,188.38754272460938 L466.8389892578125,188.3299560546875 L468.2127380371094,187.70126342773438 L469.61383056640625,186.56736755371094 L470.92645263671875,185.04559326171875 L472.052001953125,183.2815704345703 L472.925048828125,181.45486450195312 L473.5151672363281,179.7637176513672 L473.8227844238281,178.3616180419922 L473.90753173828125,177.36978149414062 L473.8580017089844,176.87060546875 L473.7520751953125,176.90127563476562 L473.64215087890625,177.4676513671875 L473.55908203125,178.53591918945312 L473.5198974609375,179.9883575439453 L473.55712890625,181.6758575439453 L473.70086669921875,183.4286651611328 L473.95489501953125,185.09402465820312 L474.3516540527344,186.5276336669922 L474.88958740234375,187.614501953125 L475.5443420410156,188.29336547851562 L476.1350402832031,188.61512756347656 L476.54144287109375,188.6977081298828 M484.44866943359375,177.86962890625 L484.2417907714844,177.57603454589844 L483.7799072265625,177.24237060546875 L483.0120849609375,177.06492614746094 L482.00054931640625,177.29327392578125 L480.86859130859375,177.9942626953125 L479.8032531738281,179.12010192871094 L478.97918701171875,180.55088806152344 L478.5312805175781,182.13510131835938 L478.5338439941406,183.70155334472656 L479.0163269042969,185.10801696777344 L479.9394226074219,186.23760986328125 L481.2909240722656,186.974853515625 L482.9688720703125,187.2953643798828 L484.8134765625,187.2269744873047 L486.3572998046875,186.97396850585938 L487.3503112792969,186.72268676757812 M488.31365966796875,183.52362060546875 L488.42828369140625,183.61387634277344 L488.7416076660156,183.66632080078125 L489.3262023925781,183.5898895263672 L490.19683837890625,183.27806091308594 L491.3036804199219,182.72195434570312 L492.5409851074219,181.94053649902344 L493.7894592285156,180.97274780273438 L494.9001159667969,179.88882446289062 L495.7229309082031,178.7810516357422 L496.1474609375,177.74900817871094 L496.1093444824219,176.91339111328125 L495.60699462890625,176.3900604248047 L494.7066345214844,176.27337646484375 L493.51849365234375,176.6431884765625 L492.1959533691406,177.50595092773438 L490.93438720703125,178.7919921875 L489.92706298828125,180.3686981201172 L489.3394775390625,182.07000732421875 L489.2466125488281,183.730712890625 L489.7227783203125,185.19400024414062 L490.7255859375,186.32696533203125 L492.1314392089844,187.05174255371094 L493.4527893066406,187.40560913085938 L494.3763427734375,187.50592041015625 M505.25518798828125,176.28184509277344 L504.7740478515625,176.0543212890625 L503.89080810546875,175.85354614257812 L502.6574401855469,175.8386688232422 L501.31085205078125,176.16696166992188 L500.0784606933594,176.80186462402344 L499.19952392578125,177.65390014648438 L498.8338623046875,178.6042022705078 L499.0987854003906,179.58348083496094 L499.99688720703125,180.52340698242188 L501.43084716796875,181.3904266357422 L503.22314453125,182.18284606933594 L505.1258544921875,182.9306182861328 L506.8570556640625,183.66188049316406 L508.17315673828125,184.3787841796875 L508.8759765625,185.04925537109375 L508.86065673828125,185.6365203857422 L508.13934326171875,186.12118530273438 L506.82647705078125,186.5067138671875 L505.1121826171875,186.79129028320312 L503.2230529785156,186.9637451171875 L501.364013671875,187.0108184814453 L499.7058410644531,186.94784545898438 L498.35809326171875,186.81539916992188 L497.4012451171875,186.65036010742188 L496.8619689941406,186.4752960205078 L496.71240234375,186.29322814941406 L496.7873229980469,186.1367950439453 L496.93145751953125,186.02951049804688 M520.6900024414062,175.6722412109375 L520.5878295898438,175.9208984375 L520.4271850585938,176.5365753173828 L520.2298583984375,177.6483917236328 L520.0482788085938,179.26580810546875 L519.9175415039062,181.32931518554688 L519.8642578125,183.69796752929688 L519.882080078125,186.19776916503906 L519.966064453125,188.6454620361328 L520.0839233398438,190.8483123779297 L520.2022705078125,192.63037109375 L520.30322265625,193.8856201171875 L520.3857421875,194.5427703857422 L520.4403076171875,194.574951171875 L520.4646606445312,193.97048950195312 L520.4569091796875,192.739501953125 L520.4066162109375,190.9703369140625 L520.3228759765625,188.83663940429688 L520.244873046875,186.52426147460938 L520.2229614257812,184.20396423339844 L520.3034057617188,181.97555541992188 L520.5386352539062,179.89222717285156 L520.96337890625,178.01475524902344 L521.61376953125,176.4140625 L522.5169067382812,175.15533447265625 L523.6778564453125,174.30865478515625 L525.0433349609375,173.91275024414062 L526.521484375,173.9842987060547 L527.984619140625,174.52084350585938 L529.3091430664062,175.4767303466797 L530.3651123046875,176.74940490722656 L531.060546875,178.20729064941406 L531.3237915039062,179.69200134277344 L531.1206665039062,181.05625915527344 L530.4498291015625,182.19024658203125 L529.3734130859375,183.03822326660156 L527.97021484375,183.58050537109375 L526.3806762695312,183.8339080810547 L524.7677001953125,183.8463134765625 L523.2879638671875,183.66339111328125 L522.1275634765625,183.28787231445312 L521.434326171875,182.75868225097656 L521.2520141601562,182.12240600585938 L521.3901977539062,181.55714416503906 L521.6289672851562,181.18345642089844 M539.552978515625,175.78709411621094 L539.377197265625,175.53482055664062 L539.0162963867188,175.1741180419922 L538.4359130859375,174.83743286132812 L537.660888671875,174.72727966308594 L536.7286376953125,174.97796630859375 L535.7008666992188,175.6409912109375 L534.6959838867188,176.68878173828125 L533.8558959960938,178.02587890625 L533.310791015625,179.5035400390625 L533.1580200195312,180.93548583984375 L533.4308471679688,182.15151977539062 L534.08203125,182.98544311523438 L535.050537109375,183.33145141601562 L536.2529296875,183.1443634033203 L537.5792846679688,182.423095703125 L538.9091796875,181.2216033935547 L540.1163330078125,179.65203857421875 L541.0794067382812,177.89393615722656 L541.734375,176.17884826660156 L542.0927124023438,174.72171020507812 L542.2140502929688,173.65939331054688 L542.1796264648438,173.06101989746094 L542.0693359375,172.9362335205078 L541.9267578125,173.2954864501953 L541.7859497070312,174.14463806152344 L541.6820068359375,175.4228057861328 L541.6513061523438,177.00205993652344 L541.7540283203125,178.736083984375 L542.0211181640625,180.4355926513672 L542.4434204101562,181.94554138183594 L542.8680419921875,183.03814697265625 L543.177490234375,183.65296936035156 M552.2500610351562,174.52545166015625 L552.0364990234375,174.13009643554688 L551.5416259765625,173.63095092773438 L550.6854248046875,173.22354125976562 L549.521484375,173.1669921875 L548.1965942382812,173.4934844970703 L546.9337158203125,174.141357421875 L545.9918212890625,174.9794158935547 L545.5809326171875,175.90478515625 L545.80859375,176.818359375 L546.6981201171875,177.67428588867188 L548.1573486328125,178.45156860351562 L549.9957885742188,179.1680450439453 L551.950439453125,179.8423309326172 L553.7307739257812,180.48643493652344 L555.1032104492188,181.09092712402344 L555.9169921875,181.63784790039062 L556.1229858398438,182.11993408203125 L555.7448120117188,182.5464630126953 L554.8447875976562,182.90721130371094 L553.536376953125,183.19192504882812 L551.992431640625,183.3792724609375 L550.3992919921875,183.44638061523438 L548.940185546875,183.4124755859375 L547.7975463867188,183.281494140625 L547.082275390625,183.05862426757812 L546.822021484375,182.76307678222656 L546.8587036132812,182.48707580566406 L547.007568359375,182.28712463378906 M563.9927368164062,173.01268005371094 L563.8093872070312,172.65643310546875 L563.34375,172.2101593017578 L562.5191650390625,171.8473358154297 L561.3819580078125,171.7916259765625 L560.0892333984375,172.07037353515625 L558.8817749023438,172.64996337890625 L558.007080078125,173.44329833984375 L557.6689453125,174.38906860351562 L557.9990234375,175.40203857421875 L559.0205688476562,176.41500854492188 L560.6337280273438,177.3800506591797 L562.6229248046875,178.28102111816406 L564.6925048828125,179.12222290039062 L566.5397338867188,179.92147827148438 L567.9205932617188,180.66917419433594 L568.6846923828125,181.35406494140625 L568.779541015625,181.97158813476562 L568.212890625,182.5168914794922 L567.0582885742188,182.9871368408203 L565.3765258789062,183.38624572753906 L563.3241577148438,183.7025146484375 L561.1309814453125,183.9411163330078 L559.33935546875,184.09654235839844 L558.2177734375,184.17840576171875 " fill="none" stroke="black" stroke-linecap="round" stroke-width="2" /><path d="M0,0 M399.46539306640625,246.9039306640625 L399.4463806152344,246.31393432617188 L399.4639587402344,245.21563720703125 L399.5598449707031,243.6256561279297 L399.7633361816406,241.72186279296875 L400.0677795410156,239.6012420654297 L400.47418212890625,237.3690185546875 L400.9553527832031,235.1184539794922 L401.4997863769531,232.9781494140625 L402.06988525390625,231.10556030273438 L402.6087646484375,229.6405487060547 L403.06927490234375,228.69802856445312 L403.4490661621094,228.35418701171875 L403.7771301269531,228.64703369140625 L404.09759521484375,229.60052490234375 L404.4366760253906,231.20770263671875 L404.7957458496094,233.39990234375 L405.15521240234375,236.0602264404297 L405.50799560546875,239.00408935546875 L405.86871337890625,242.011474609375 L406.23931884765625,244.84786987304688 L406.60748291015625,247.270751953125 L406.9465637207031,249.110107421875 L407.194091796875,250.25352478027344 L407.3305969238281,250.78900146484375 M396.9509582519531,241.5846710205078 L396.9808044433594,241.59854125976562 L397.2432861328125,241.62338256835938 L397.9023132324219,241.65489196777344 L399.09326171875,241.64678955078125 L400.7252502441406,241.55813598632812 L402.5873107910156,241.36245727539062 L404.15032958984375,241.138671875 L405.1407775878906,240.95941162109375 M410.1777648925781,239.71141052246094 L410.1808776855469,240.32017517089844 L410.17877197265625,241.3884735107422 L410.1759033203125,242.8531494140625 L410.1680603027344,244.479248046875 L410.1602783203125,246.13998413085938 L410.1515808105469,247.67530822753906 L410.1413269042969,248.9639892578125 L410.1235656738281,249.8640899658203 L410.1080322265625,250.2761688232422 L410.10272216796875,250.1349639892578 L410.1492004394531,249.4402618408203 L410.29962158203125,248.2082061767578 L410.62982177734375,246.55906677246094 L411.19378662109375,244.6454620361328 L412.0210876464844,242.66632080078125 L413.07843017578125,240.8101043701172 L414.30218505859375,239.24862670898438 L415.581787109375,238.08412170410156 L416.8127746582031,237.4123992919922 L417.91455078125,237.28160095214844 L418.8377685546875,237.71646118164062 L419.53936767578125,238.68304443359375 L420.015625,240.0973358154297 L420.2771911621094,241.8175048828125 L420.3645935058594,243.66893005371094 L420.35015869140625,245.4665985107422 L420.30328369140625,247.05516052246094 L420.3015441894531,248.29962158203125 L420.39764404296875,249.12948608398438 L420.61700439453125,249.56129455566406 L420.86529541015625,249.70608520507812 L421.0633544921875,249.7020263671875 M431.39788818359375,242.80218505859375 L431.37408447265625,242.31817626953125 L431.22296142578125,241.52481079101562 L430.85986328125,240.54441833496094 L430.2258605957031,239.62864685058594 L429.3443908691406,238.9384307861328 L428.25689697265625,238.6004180908203 L427.0334167480469,238.68869018554688 L425.77752685546875,239.2618865966797 L424.62225341796875,240.3212127685547 L423.7063903808594,241.7974395751953 L423.1675720214844,243.57388305664062 L423.0635986328125,245.46182250976562 L423.3992919921875,247.24798583984375 L424.129638671875,248.72491455078125 L425.19061279296875,249.70814514160156 L426.49322509765625,250.0572052001953 L427.9508056640625,249.6963653564453 L429.45037841796875,248.60040283203125 L430.8940124511719,246.81881713867188 L432.1913757324219,244.47499084472656 L433.2900085449219,241.7427978515625 L434.15106201171875,238.82884216308594 L434.7762756347656,235.94793701171875 L435.19219970703125,233.29888916015625 L435.45172119140625,231.0422821044922 L435.6026306152344,229.28892517089844 L435.67626953125,228.1013641357422 L435.684814453125,227.520751953125 L435.63458251953125,227.5812530517578 L435.53955078125,228.3169403076172 L435.42230224609375,229.70980834960938 L435.30963134765625,231.66854858398438 L435.2234191894531,234.02825927734375 L435.1930236816406,236.59451293945312 L435.2379150390625,239.18515014648438 L435.3722229003906,241.64859008789062 L435.59368896484375,243.85452270507812 L435.88385009765625,245.70960998535156 L436.2143859863281,247.16000366210938 L436.54876708984375,248.1408233642578 L436.8457336425781,248.63880920410156 L437.0760498046875,248.68067932128906 L437.2200012207031,248.4762420654297 L437.2861022949219,248.22726440429688 M451.76129150390625,227.70191955566406 L451.7376708984375,228.26171875 L451.6720275878906,229.32994079589844 L451.5558166503906,230.92942810058594 L451.4057922363281,232.947265625 L451.2397155761719,235.32684326171875 L451.0880126953125,237.9853515625 L450.96026611328125,240.808837890625 L450.850830078125,243.62649536132812 L450.76776123046875,246.20831298828125 L450.73358154296875,248.35162353515625 L450.73388671875,249.80300903320312 L450.75677490234375,250.5616912841797 M455.77166748046875,225.0 L455.7880859375,225.427490234375 L455.793212890625,226.20120239257812 L455.7868347167969,227.0391845703125 L455.7687072753906,227.6595001220703 M459.744140625,239.87791442871094 L459.78759765625,239.4725341796875 L459.85565185546875,238.89328002929688 L459.9405822753906,238.3136444091797 L460.0384216308594,238.001220703125 L460.1675109863281,238.0889434814453 L460.33050537109375,238.66937255859375 L460.50726318359375,239.73448181152344 L460.67138671875,241.23069763183594 L460.7832946777344,243.01995849609375 L460.8301696777344,244.89158630371094 L460.824951171875,246.6280517578125 L460.79754638671875,248.0498046875 L460.7767333984375,249.01498413085938 L460.7992858886719,249.43983459472656 L460.89068603515625,249.2797088623047 L461.0955810546875,248.5155029296875 L461.46875,247.1873779296875 L462.0692138671875,245.4254150390625 L462.9206237792969,243.4334259033203 L463.9986877441406,241.4639434814453 L465.1988220214844,239.7458038330078 L466.3986511230469,238.4451904296875 L467.48443603515625,237.65264892578125 L468.3978271484375,237.41207885742188 L469.1285705566406,237.73590087890625 L469.6971435546875,238.61599731445312 L470.0829772949219,239.989501953125 L470.2637023925781,241.73414611816406 L470.2283935546875,243.65390014648438 L470.01763916015625,245.49880981445312 L469.7149353027344,247.0483856201172 L469.43634033203125,248.1319580078125 L469.26812744140625,248.62742614746094 L469.26239013671875,248.4656524658203 L469.4631042480469,247.63531494140625 L469.9076232910156,246.17784118652344 L470.6051025390625,244.2774658203125 L471.549072265625,242.19456481933594 L472.69598388671875,240.20159912109375 L473.9601745605469,238.52169799804688 L475.2620849609375,237.3054962158203 L476.5299072265625,236.61642456054688 L477.70086669921875,236.4868621826172 L478.72100830078125,236.90745544433594 L479.54632568359375,237.84719848632812 L480.1463928222656,239.2335968017578 L480.5117492675781,240.93533325195312 L480.6790771484375,242.8167266845703 L480.71600341796875,244.6913299560547 L480.69329833984375,246.37811279296875 L480.66302490234375,247.6061553955078 L480.65081787109375,248.3048858642578 M496.6905822753906,228.39903259277344 L496.6707458496094,228.28521728515625 L496.6532287597656,228.1958770751953 L496.6470031738281,228.28175354003906 L496.6557922363281,228.73377990722656 L496.6666259765625,229.68154907226562 L496.6612243652344,231.1575927734375 L496.6179504394531,233.09152221679688 L496.53167724609375,235.3612518310547 L496.39654541015625,237.81605529785156 L496.2116394042969,240.29229736328125 L495.99017333984375,242.62782287597656 L495.7657470703125,244.64952087402344 L495.5676574707031,246.20089721679688 L495.4264221191406,247.1626434326172 L495.3671569824219,247.4782257080078 L495.40625,247.1290740966797 L495.5778503417969,246.14227294921875 L495.9378967285156,244.61573791503906 L496.52752685546875,242.73870849609375 L497.3583984375,240.75161743164062 L498.411376953125,238.9197540283203 L499.60687255859375,237.445068359375 L500.8563232421875,236.459716796875 L502.0777893066406,236.02972412109375 L503.1855773925781,236.17715454101562 L504.11090087890625,236.8766632080078 L504.8137512207031,238.0782928466797 L505.25347900390625,239.67617797851562 L505.4388427734375,241.53309631347656 L505.41326904296875,243.47552490234375 L505.23150634765625,245.31690979003906 L505.0084533691406,246.85816955566406 L504.8629150390625,247.96481323242188 L504.87518310546875,248.58880615234375 L504.99468994140625,248.8318328857422 L505.1396484375,248.85665893554688 M514.571533203125,240.36463928222656 L514.5474243164062,239.95994567871094 L514.3682861328125,239.38287353515625 L513.9202880859375,238.8203125 L513.1241455078125,238.551025390625 L512.0087890625,238.70904541015625 L510.68365478515625,239.35350036621094 L509.334228515625,240.43653869628906 L508.1507263183594,241.8619384765625 L507.31201171875,243.49163818359375 L506.94482421875,245.15155029296875 L507.103759765625,246.66749572753906 L507.758544921875,247.87289428710938 L508.83587646484375,248.62879943847656 L510.2020263671875,248.83062744140625 L511.7132568359375,248.4419403076172 L513.2221069335938,247.49407958984375 L514.5677490234375,246.08346557617188 L515.596435546875,244.3850555419922 L516.199951171875,242.61297607421875 L516.3160400390625,240.9674835205078 L516.0121459960938,239.6094970703125 L515.4501953125,238.6204376220703 L514.8359375,237.9918670654297 L514.408203125,237.70294189453125 L514.3103637695312,237.68345642089844 L514.5391235351562,237.84080505371094 L514.8984985351562,238.04345703125 L515.2057495117188,238.19967651367188 M520.9660034179688,241.1519012451172 L520.8646240234375,241.81605529785156 L520.669189453125,242.95632934570312 L520.3886108398438,244.4523468017578 L520.0792236328125,245.97747802734375 L519.7972412109375,247.33212280273438 L519.5882568359375,248.35763549804688 L519.459716796875,248.95956420898438 L519.412109375,249.07752990722656 L519.4415283203125,248.67636108398438 L519.5657958984375,247.74412536621094 L519.82958984375,246.3459014892578 L520.269775390625,244.6278839111328 L520.9149169921875,242.7767791748047 L521.7711791992188,241.00448608398438 L522.8064575195312,239.48338317871094 L523.951904296875,238.33944702148438 L525.132080078125,237.66783142089844 L526.248291015625,237.51272583007812 L527.2254638671875,237.88372802734375 L528.0015258789062,238.74742126464844 L528.5283203125,240.01670837402344 L528.7802124023438,241.5585174560547 L528.788330078125,243.19534301757812 L528.6211547851562,244.70382690429688 L528.3844604492188,245.9212646484375 L528.1668090820312,246.73597717285156 L528.0177001953125,247.08192443847656 L527.975341796875,246.93194580078125 L528.09130859375,246.2871551513672 L528.4412231445312,245.16317749023438 L529.0936889648438,243.69822692871094 L530.0515747070312,242.08116149902344 L531.2459716796875,240.50997924804688 L532.575439453125,239.15916442871094 L533.91455078125,238.1554412841797 L535.1600341796875,237.5613250732422 L536.223388671875,237.45376586914062 L537.0175170898438,237.86317443847656 L537.4798583984375,238.77603149414062 L537.60205078125,240.12257385253906 L537.4185791015625,241.7578887939453 L537.0369262695312,243.48272705078125 L536.6036376953125,245.12631225585938 L536.302001953125,246.4886932373047 L536.2603759765625,247.43130493164062 L536.525634765625,247.8997802734375 L536.90869140625,248.0126495361328 L537.2369384765625,247.94033813476562 M540.2288818359375,246.9755096435547 L540.5147094726562,246.88047790527344 L541.113037109375,246.625 L542.0604248046875,246.14108276367188 L543.2862548828125,245.4038543701172 L544.69140625,244.4334716796875 L546.1461791992188,243.25318908691406 L547.5054931640625,241.9419403076172 L548.625732421875,240.60162353515625 L549.3770141601562,239.34507751464844 L549.6778564453125,238.2944793701172 L549.4910278320312,237.5577850341797 L548.8377685546875,237.21310424804688 L547.7881469726562,237.33457946777344 L546.47119140625,237.9598388671875 L545.057861328125,239.05908203125 L543.7610473632812,240.5335235595703 L542.7625732421875,242.22857666015625 L542.2052612304688,243.98866271972656 L542.1378173828125,245.66671752929688 L542.6207275390625,247.13206481933594 L543.612060546875,248.2775115966797 L545.0031127929688,249.03195190429688 L546.310791015625,249.4163055419922 L547.2262573242188,249.54302978515625 M553.576904296875,241.770263671875 L553.6553344726562,241.76373291015625 L553.9588623046875,241.73574829101562 L554.604248046875,241.67921447753906 L555.7012939453125,241.57144165039062 L557.1884765625,241.41110229492188 L558.9017944335938,241.19845581054688 L560.360107421875,240.99574279785156 L561.3023071289062,240.85076904296875 M569.5464477539062,229.384765625 L569.4540405273438,229.76905822753906 L569.278076171875,230.56375122070312 L569.0111694335938,231.818359375 L568.6686401367188,233.45481872558594 L568.2557373046875,235.38302612304688 L567.7845458984375,237.4955291748047 L567.2850341796875,239.67611694335938 L566.7813720703125,241.78456115722656 L566.3170166015625,243.66598510742188 L565.9319458007812,245.19277954101562 L565.664794921875,246.26632690429688 L565.52978515625,246.8361053466797 L565.539794921875,246.8747100830078 L565.6804809570312,246.38101196289062 L565.9657592773438,245.38363647460938 L566.423828125,244.0029754638672 L567.1079711914062,242.4097137451172 L568.0535278320312,240.80194091796875 L569.2672119140625,239.35972595214844 L570.6952514648438,238.22705078125 L572.24609375,237.4910888671875 L573.79541015625,237.22100830078125 L575.2288818359375,237.43829345703125 L576.4360961914062,238.11996459960938 L577.322021484375,239.2034454345703 L577.81982421875,240.58445739746094 L577.8809204101562,242.12709045410156 L577.4744873046875,243.68505859375 L576.6323852539062,245.1214599609375 L575.4312744140625,246.33071899414062 L573.9820556640625,247.24107360839844 L572.4203491210938,247.802001953125 L570.8963623046875,248.02899169921875 L569.5567626953125,248.00914001464844 L568.5083618164062,247.84693908691406 L567.9052734375,247.63136291503906 L567.816162109375,247.40011596679688 L568.2081298828125,247.1249237060547 L568.7767944335938,246.86566162109375 L569.2683715820312,246.6796875 M586.3509521484375,240.85296630859375 L586.110107421875,240.470458984375 L585.6106567382812,239.91908264160156 L584.80810546875,239.35850524902344 L583.7442626953125,239.0365753173828 L582.476318359375,239.06536865234375 L581.125244140625,239.51641845703125 L579.8524169921875,240.37741088867188 L578.8181762695312,241.58998107910156 L578.1671142578125,243.03160095214844 L578.000244140625,244.52056884765625 L578.3482055664062,245.85655212402344 L579.1761474609375,246.87554931640625 L580.3884887695312,247.4448699951172 L581.832275390625,247.4928741455078 L583.3335571289062,247.0166473388672 L584.7254638671875,246.0713653564453 L585.87255859375,244.7715301513672 L586.6759033203125,243.2820587158203 L587.10986328125,241.7752227783203 L587.2222290039062,240.41378784179688 L587.1131591796875,239.32583618164062 L586.9087524414062,238.57791137695312 L586.7301635742188,238.16502380371094 L586.6238403320312,238.00270080566406 M591.7874145507812,238.02798461914062 L591.6530151367188,237.55758666992188 L591.3983154296875,236.91783142089844 L591.0337524414062,236.3277587890625 L590.5938110351562,236.1004638671875 L590.10791015625,236.36749267578125 L589.6104125976562,237.17630004882812 L589.1495361328125,238.45558166503906 L588.7991943359375,240.0929718017578 L588.6497192382812,241.885986328125 L588.7655639648438,243.5936279296875 L589.1885375976562,245.0119171142578 L589.908935546875,245.97557067871094 L590.8958740234375,246.38241577148438 L592.0945434570312,246.21173095703125 L593.415771484375,245.481201171875 L594.748046875,244.2687225341797 L595.965087890625,242.72262573242188 L596.9620361328125,241.05191040039062 L597.6925048828125,239.48289489746094 L598.1724243164062,238.2323760986328 L598.4180908203125,237.42967224121094 L598.4573974609375,237.1494598388672 L598.3049926757812,237.4049530029297 L597.9983520507812,238.19638061523438 L597.6103515625,239.4496612548828 L597.2633666992188,241.01141357421875 L597.032958984375,242.65093994140625 L597.028076171875,244.1172332763672 L597.28125,245.19847106933594 L597.768310546875,245.8197784423828 L598.2783813476562,246.0651092529297 L598.6643676757812,246.0897674560547 M602.4259033203125,237.7124481201172 L602.4981689453125,237.9235076904297 L602.5818481445312,238.45233154296875 L602.6156005859375,239.39089965820312 L602.537841796875,240.70497131347656 L602.3413696289062,242.23744201660156 L602.07861328125,243.77685546875 L601.8224487304688,245.09815979003906 L601.665283203125,246.04273986816406 L601.6566772460938,246.51010131835938 L601.8242797851562,246.45285034179688 L602.1730346679688,245.8468017578125 L602.70556640625,244.73452758789062 L603.4044189453125,243.22776794433594 L604.2695922851562,241.52862548828125 L605.2656860351562,239.85467529296875 L606.3416748046875,238.41677856445312 L607.4365234375,237.36050415039062 L608.4776000976562,236.7827606201172 L609.3871459960938,236.7177276611328 L610.1114501953125,237.15191650390625 L610.6015625,238.0147705078125 L610.8345947265625,239.21800231933594 L610.8167114257812,240.647216796875 L610.6154174804688,242.20306396484375 L610.3480834960938,243.73867797851562 L610.1415405273438,245.10647583007812 L610.042724609375,246.0872802734375 L610.0361328125,246.6298370361328 M619.6834106445312,243.08270263671875 L619.6905517578125,242.5787811279297 L619.618408203125,241.76817321777344 L619.387939453125,240.7676544189453 L618.9373779296875,239.8203887939453 L618.25048828125,239.04551696777344 L617.3170776367188,238.54440307617188 L616.1907348632812,238.39308166503906 L614.94873046875,238.66937255859375 L613.7161254882812,239.40748596191406 L612.6473999023438,240.57090759277344 L611.8804321289062,242.0482177734375 L611.50927734375,243.6515655517578 L611.5906372070312,245.15869140625 L612.113037109375,246.3541259765625 L613.0201416015625,247.07217407226562 L614.2025756835938,247.18801879882812 L615.53125,246.6531982421875 L616.890869140625,245.48184204101562 L618.1834716796875,243.7417755126953 L619.3562622070312,241.56248474121094 L620.392578125,239.11346435546875 L621.2880859375,236.56466674804688 L622.05615234375,234.1033935546875 L622.7052001953125,231.90927124023438 L623.2322387695312,230.11563110351562 L623.634033203125,228.8223876953125 L623.89013671875,228.10073852539062 L623.9804077148438,227.9957733154297 L623.9027099609375,228.5450897216797 L623.6568603515625,229.75247192382812 L623.27685546875,231.54156494140625 L622.8209228515625,233.7708740234375 L622.3519287109375,236.26573181152344 L621.9417114257812,238.83865356445312 L621.648193359375,241.31602478027344 L621.5316772460938,243.53607177734375 L621.6199951171875,245.34756469726562 L621.9046020507812,246.65794372558594 L622.2354736328125,247.4347381591797 L622.4959716796875,247.7796630859375 " fill="none" stroke="black" stroke-linecap="round" stroke-width="2" /></svg>